<mxfile host="app.diagrams.net" modified="2023-08-28T05:23:28.689Z" agent="Mozilla/5.0 (Windows NT 10.0; Win64; x64) AppleWebKit/537.36 (KHTML, like Gecko) Chrome/115.0.0.0 Safari/537.36 Edg/115.0.1901.188" version="21.6.9" etag="q-LD1uKtvyTzKUVv2o2v" type="github">
  <diagram name="ページ1" id="pPmeT3I05pLUAH28nktY">
    <mxGraphModel>
      <root>
        <mxCell id="0" />
        <mxCell id="1" parent="0" />
      </root>
    </mxGraphModel>
  </diagram>
</mxfile>
